<svg xmlns="http://www.w3.org/2000/svg" xmlns:xlink="http://www.w3.org/1999/xlink" width="32" height="32" viewBox="0 0 32 32"><defs><clipPath id="b"><rect width="32" height="32"/></clipPath></defs><g id="a" clip-path="url(#b)"><rect width="32" height="32" fill="#fff"/><rect width="32" height="32" fill="#f6f0ec"/><rect width="32" height="1" transform="translate(0 4)" fill="#707070"/><rect width="1" height="4" transform="translate(8)" fill="#707070"/><rect width="1" height="4" transform="translate(22)" fill="#707070"/><rect width="32" height="1" transform="translate(0 12)" fill="#707070"/><rect width="1" height="7" transform="translate(16 5)" fill="#707070"/><rect width="1" height="7" transform="translate(27 5)" fill="#707070"/><rect width="32" height="1" transform="translate(0 20)" fill="#707070"/><rect width="1" height="7" transform="translate(8 13)" fill="#707070"/><rect width="1" height="7" transform="translate(22 13)" fill="#707070"/><rect width="32" height="1" transform="translate(0 28)" fill="#707070"/><rect width="1" height="7" transform="translate(16 21)" fill="#707070"/><rect width="1" height="7" transform="translate(27 21)" fill="#707070"/><rect width="1" height="7" transform="translate(3 5)" fill="#707070"/><rect width="1" height="7" transform="translate(3 21)" fill="#707070"/><rect width="1" height="3" transform="translate(8 29)" fill="#707070"/><rect width="1" height="3" transform="translate(22 29)" fill="#707070"/></g></svg>