<svg xmlns="http://www.w3.org/2000/svg" xmlns:xlink="http://www.w3.org/1999/xlink" width="32" height="32" viewBox="0 0 32 32"><defs><clipPath id="b"><rect width="32" height="32"/></clipPath></defs><g id="a" clip-path="url(#b)"><rect width="32" height="32" fill="#fff"/><rect width="32" height="32" fill="#f6f0ec"/><g transform="translate(10 20)" fill="#f7e9e0"><path d="M 8.703179359436035 10.5 L 3.296820878982544 10.5 L 0.5695481896400452 5.5 L 3.296820878982544 0.5 L 8.703179359436035 0.5 L 11.43045139312744 5.5 L 8.703179359436035 10.5 Z" stroke="none"/><path d="M 3.593636512756348 1 L 1.139090538024902 5.5 L 3.593636512756348 10 L 8.406363487243652 10 L 10.8609094619751 5.5 L 8.406363487243652 1 L 3.593636512756348 1 M 3 0 L 9 0 L 12 5.5 L 9 11 L 3 11 L 0 5.5 L 3 0 Z" stroke="none" fill="#707070"/></g><g transform="translate(10 10.5)" fill="#f7e9e0"><path d="M 8.703179359436035 10.5 L 3.296820878982544 10.5 L 0.5695481896400452 5.5 L 3.296820878982544 0.5 L 8.703179359436035 0.5 L 11.43045139312744 5.5 L 8.703179359436035 10.5 Z" stroke="none"/><path d="M 3.593636512756348 1 L 1.139090538024902 5.5 L 3.593636512756348 10 L 8.406363487243652 10 L 10.8609094619751 5.5 L 8.406363487243652 1 L 3.593636512756348 1 M 3 0 L 9 0 L 12 5.5 L 9 11 L 3 11 L 0 5.5 L 3 0 Z" stroke="none" fill="#707070"/></g><g transform="translate(18 15.25)" fill="#fff"><path d="M 8.703179359436035 10.5 L 3.296820878982544 10.5 L 0.5695481896400452 5.5 L 3.296820878982544 0.5 L 8.703179359436035 0.5 L 11.43045139312744 5.5 L 8.703179359436035 10.5 Z" stroke="none"/><path d="M 3.593636512756348 1 L 1.139090538024902 5.5 L 3.593636512756348 10 L 8.406363487243652 10 L 10.8609094619751 5.5 L 8.406363487243652 1 L 3.593636512756348 1 M 3 0 L 9 0 L 12 5.5 L 9 11 L 3 11 L 0 5.5 L 3 0 Z" stroke="none" fill="#707070"/></g><g transform="translate(18 15.25)" fill="#f7e9e0"><path d="M 8.703179359436035 10.5 L 3.296820878982544 10.5 L 0.5695481896400452 5.5 L 3.296820878982544 0.5 L 8.703179359436035 0.5 L 11.43045139312744 5.5 L 8.703179359436035 10.5 Z" stroke="none"/><path d="M 3.593636512756348 1 L 1.139090538024902 5.5 L 3.593636512756348 10 L 8.406363487243652 10 L 10.8609094619751 5.5 L 8.406363487243652 1 L 3.593636512756348 1 M 3 0 L 9 0 L 12 5.5 L 9 11 L 3 11 L 0 5.5 L 3 0 Z" stroke="none" fill="#707070"/></g><g transform="translate(18 5.75)" fill="#f7e9e0"><path d="M 8.703179359436035 10.5 L 3.296820878982544 10.5 L 0.5695481896400452 5.5 L 3.296820878982544 0.5 L 8.703179359436035 0.5 L 11.43045139312744 5.5 L 8.703179359436035 10.5 Z" stroke="none"/><path d="M 3.593636512756348 1 L 1.139090538024902 5.5 L 3.593636512756348 10 L 8.406363487243652 10 L 10.8609094619751 5.5 L 8.406363487243652 1 L 3.593636512756348 1 M 3 0 L 9 0 L 12 5.5 L 9 11 L 3 11 L 0 5.5 L 3 0 Z" stroke="none" fill="#707070"/></g><g transform="translate(10 1)" fill="#f7e9e0"><path d="M 8.703179359436035 10.5 L 3.296820878982544 10.5 L 0.5695481896400452 5.5 L 3.296820878982544 0.5 L 8.703179359436035 0.5 L 11.43045139312744 5.5 L 8.703179359436035 10.5 Z" stroke="none"/><path d="M 3.593636512756348 1 L 1.139090538024902 5.5 L 3.593636512756348 10 L 8.406363487243652 10 L 10.8609094619751 5.5 L 8.406363487243652 1 L 3.593636512756348 1 M 3 0 L 9 0 L 12 5.5 L 9 11 L 3 11 L 0 5.5 L 3 0 Z" stroke="none" fill="#707070"/></g><g transform="translate(2 15.25)" fill="#f7e9e0"><path d="M 8.703179359436035 10.5 L 3.296820878982544 10.5 L 0.5695481896400452 5.5 L 3.296820878982544 0.5 L 8.703179359436035 0.5 L 11.43045139312744 5.5 L 8.703179359436035 10.5 Z" stroke="none"/><path d="M 3.593636512756348 1 L 1.139090538024902 5.5 L 3.593636512756348 10 L 8.406363487243652 10 L 10.8609094619751 5.5 L 8.406363487243652 1 L 3.593636512756348 1 M 3 0 L 9 0 L 12 5.5 L 9 11 L 3 11 L 0 5.5 L 3 0 Z" stroke="none" fill="#707070"/></g><g transform="translate(2 5.75)" fill="#f7e9e0"><path d="M 8.703179359436035 10.5 L 3.296820878982544 10.5 L 0.5695481896400452 5.5 L 3.296820878982544 0.5 L 8.703179359436035 0.5 L 11.43045139312744 5.5 L 8.703179359436035 10.5 Z" stroke="none"/><path d="M 3.593636512756348 1 L 1.139090538024902 5.5 L 3.593636512756348 10 L 8.406363487243652 10 L 10.8609094619751 5.5 L 8.406363487243652 1 L 3.593636512756348 1 M 3 0 L 9 0 L 12 5.5 L 9 11 L 3 11 L 0 5.5 L 3 0 Z" stroke="none" fill="#707070"/></g><rect width="5" height="1" transform="translate(0 25.25)" fill="#707070"/><rect width="5" height="1" transform="translate(27 25.25)" fill="#707070"/><rect width="5" height="1" transform="translate(0 5.75)" fill="#707070"/><rect width="5" height="1" transform="translate(27 5.75)" fill="#707070"/><rect width="1" height="1" transform="translate(13)" fill="#707070"/><rect width="1" height="1" transform="translate(18)" fill="#707070"/><rect width="1" height="1" transform="translate(13 31)" fill="#707070"/><rect width="1" height="1" transform="translate(18 31)" fill="#707070"/></g></svg>