<svg xmlns="http://www.w3.org/2000/svg" xmlns:xlink="http://www.w3.org/1999/xlink" width="64" height="64" viewBox="0 0 64 64"><defs><clipPath id="b"><rect width="64" height="64"/></clipPath></defs><g id="a" clip-path="url(#b)"><path d="M255.2,367v64h24a7.352,7.352,0,0,0,0-3.066c-.317-2.113-.578-1.938-.466-3.87a37.93,37.93,0,0,1,.466-4.473c.369-2.716-.527-3.109-.2-4.5a7.718,7.718,0,0,0,.065-4.666c-.636-1.584.41-1.848,0-3.867s.6-2.091-.065-4.2,1.191-1.667.2-3.523.294-2-.138-3.289.538-1.89.138-3.2,2.326-2.136,3.8-1.789,4.19.969,5.827.437,4.531,1.122,6.376,0,4.249.483,5.726,0,3.228,1.416,5.159,0,3.4-.2,5.115,0,2.9-.844,4,0,4,0,4,0V367Z" transform="translate(-255.198 -366.996)" fill="#888786"/></g></svg>