<svg xmlns="http://www.w3.org/2000/svg" xmlns:xlink="http://www.w3.org/1999/xlink" width="64" height="64" viewBox="0 0 64 64"><defs><clipPath id="b"><rect width="64" height="64"/></clipPath></defs><g id="a" clip-path="url(#b)"><path d="M-344-303h-64v-64h64v64Zm-14.56-1.1a11.51,11.51,0,0,1,2.7.222,17.813,17.813,0,0,0,4.059.322c3.232,0,6.9-.319,6.941-.322a52.6,52.6,0,0,0,.328-11,44.582,44.582,0,0,1-.051-7.293,35.724,35.724,0,0,0,.051-4.706c-.274-3.756-.328-7.376-.328-12,0-1.416.056-3.389.115-5.478.135-4.775.3-10.717-.115-13.242a34.423,34.423,0,0,1,0-8.28c-.041,0-5.289-.415-9.183-.415-1.026,0-1.884.028-2.55.084-.853.071-2.039.106-3.625.106s-3.358-.034-5.193-.072l-.229,0c-1.651-.034-3.211-.067-4.45-.067-.767,0-1.346.013-1.769.038-1.612.1-4.651.2-7.34.2a36.361,36.361,0,0,1-4.66-.2,48.6,48.6,0,0,0-5.964-.256c-2.723,0-5.22.1-6.68.256-2.926.322-9.538.331-10.282.331h-.074c-.009.065-.9,6.941-.3,10.227a47.088,47.088,0,0,1,.2,7.673c-.055,2.827-.112,5.749.093,8.352a77.752,77.752,0,0,1,0,12.749,28.726,28.726,0,0,0,.016,3.813,86.252,86.252,0,0,1-.016,9.35c-.4,7.467,0,9.813.007,9.836l.008,0a39.483,39.483,0,0,1,6.171-.41,61.013,61.013,0,0,1,6.98.413,53.1,53.1,0,0,0,6.086.306c2.452,0,4.885-.112,7.166-.227l.65-.033c1.974-.1,3.836-.194,5.357-.194a17.727,17.727,0,0,1,2.582.147,19.782,19.782,0,0,0,2.877.164c1.662,0,3.609-.1,5.327-.193l.141-.007h.007C-361.7-304.008-359.989-304.1-358.561-304.1Z" transform="translate(408 367)"/></g></svg>