<svg xmlns="http://www.w3.org/2000/svg" xmlns:xlink="http://www.w3.org/1999/xlink" width="64" height="64" viewBox="0 0 64 64"><defs><clipPath id="b"><rect width="64" height="64"/></clipPath></defs><g id="a" clip-path="url(#b)"><path d="M-344-303h-64v-64h64v64Zm-59.008-63.187A27.475,27.475,0,0,0-407-366l0,0a49.93,49.93,0,0,1,0,13.154,86.488,86.488,0,0,0-.048,13.881A48.529,48.529,0,0,1-407-331a49.951,49.951,0,0,0,.036,8.341c.17,3.231.331,6.282-.036,7.659-.717,2.691-.007,10.917,0,11a56.1,56.1,0,0,0,7.3.494c1.32,0,2.566-.056,3.7-.166,1.239-.12,2.444-.178,3.683-.178,1.212,0,2.283.054,3.459.119l.147.008c1.027.057,2,.111,3,.111.6,0,1.161-.019,1.711-.059,3.757-.274,7.377-.328,12-.328,1.414,0,3.385.056,5.471.115h.008c2.511.071,5.358.152,7.818.152a37.3,37.3,0,0,0,5.424-.268,23.308,23.308,0,0,1,3.756-.267A39.769,39.769,0,0,1-345-304a106.974,106.974,0,0,0,.331-11.733c-.173-2.082-.1-5.814-.028-9.107.052-2.539.1-4.935.028-6.159a95.261,95.261,0,0,1,0-12,76.984,76.984,0,0,0,0-12.643C-345-358.683-345-365.7-345-366a65.766,65.766,0,0,0-7.221-.512,17.63,17.63,0,0,0-3.006.208,25.018,25.018,0,0,1-4.22.249c-1.083,0-2.233-.022-3.451-.046l-.129,0c-1.168-.023-2.491-.048-3.806-.048-1.741,0-3.187.047-4.419.145-2.193.173-4.4.261-6.552.261-2.728,0-4.875-.142-6.2-.261-.437-.039-.9-.058-1.431-.058-.72,0-1.491.034-2.383.074h-.012l-.5.022c-1.154.05-2.439.1-4.013.1-1.544,0-3.123-.044-4.828-.135C-399.361-366.125-401.328-366.185-403.009-366.185Z" transform="translate(408 367)"/></g></svg>