<svg xmlns="http://www.w3.org/2000/svg" xmlns:xlink="http://www.w3.org/1999/xlink" width="64" height="64" viewBox="0 0 64 64"><defs><clipPath id="b"><rect width="64" height="64"/></clipPath></defs><g id="a" clip-path="url(#b)"><path d="M402,431s-1.126-8.807-.6-11.434,2.328-8.858.6-13.513a27.827,27.827,0,0,1-.6-15.84c1.351-4.579,1.652-11.936.6-15.99A13.894,13.894,0,0,1,402,367h4v64Z" transform="translate(-342 -367)"/><circle cx="1" cy="1" r="1" transform="translate(47 61) rotate(180)"/><circle cx="1" cy="1" r="1" transform="translate(50 56) rotate(180)"/><circle cx="1" cy="1" r="1" transform="translate(53 63) rotate(180)"/><circle cx="1" cy="1" r="1" transform="translate(54 54) rotate(180)"/><circle cx="1" cy="1" r="1" transform="translate(47 50) rotate(180)"/><circle cx="1" cy="1" r="1" transform="translate(49 44) rotate(180)"/><circle cx="1" cy="1" r="1" transform="translate(52 48) rotate(180)"/><circle cx="1" cy="1" r="1" transform="translate(56 59) rotate(180)"/><circle cx="1" cy="1" r="1" transform="translate(49 38) rotate(180)"/><circle cx="1" cy="1" r="1" transform="translate(50 33) rotate(180)"/><circle cx="1" cy="1" r="1" transform="translate(54 41) rotate(180)"/><circle cx="1" cy="1" r="1" transform="translate(55 32) rotate(180)"/><circle cx="1" cy="1" r="1" transform="translate(49 27) rotate(180)"/><circle cx="1" cy="1" r="1" transform="translate(51 21) rotate(180)"/><circle cx="1" cy="1" r="1" transform="translate(53 25) rotate(180)"/><circle cx="1" cy="1" r="1" transform="translate(58 36) rotate(180)"/><circle cx="1" cy="1" r="1" transform="translate(49 15) rotate(180)"/><circle cx="1" cy="1" r="1" transform="translate(49 9) rotate(180)"/><circle cx="1" cy="1" r="1" transform="translate(58 13) rotate(180)"/><circle cx="1" cy="1" r="1" transform="translate(54 9) rotate(180)"/><circle cx="1" cy="1" r="1" transform="translate(47 3) rotate(180)"/><circle cx="1" cy="1" r="1" transform="translate(57 3) rotate(180)"/><circle cx="1" cy="1" r="1" transform="translate(55 17) rotate(180)"/><circle cx="1" cy="1" r="1" transform="translate(57 28) rotate(180)"/><circle cx="1" cy="1" r="1" transform="translate(57 22) rotate(180)"/><circle cx="1" cy="1" r="1" transform="translate(58 48) rotate(180)"/></g></svg>