<svg xmlns="http://www.w3.org/2000/svg" xmlns:xlink="http://www.w3.org/1999/xlink" width="64" height="64" viewBox="0 0 64 64"><defs><clipPath id="b"><rect width="64" height="64"/></clipPath></defs><g id="a" clip-path="url(#b)"><path d="M402,431s-1.126-8.807-.6-11.434,2.328-8.858.6-13.513a27.827,27.827,0,0,1-.6-15.84c1.351-4.579,1.652-11.936.6-15.99A13.894,13.894,0,0,1,402,367h4v64Z" transform="translate(-342 -367)"/><circle cx="1" cy="1" r="1" transform="translate(56 2)"/><circle cx="1" cy="1" r="1" transform="translate(55 7)"/><circle cx="1" cy="1" r="1" transform="translate(51)"/><circle cx="1" cy="1" r="1" transform="translate(50 8)"/><circle cx="1" cy="1" r="1" transform="translate(56 13)"/><circle cx="1" cy="1" r="1" transform="translate(54 19)"/><circle cx="1" cy="1" r="1" transform="translate(51 15)"/><circle cx="1" cy="1" r="1" transform="translate(47 4)"/><circle cx="1" cy="1" r="1" transform="translate(54 25)"/><circle cx="1" cy="1" r="1" transform="translate(53 30)"/><circle cx="1" cy="1" r="1" transform="translate(49 22)"/><circle cx="1" cy="1" r="1" transform="translate(48 31)"/><circle cx="1" cy="1" r="1" transform="translate(54 36)"/><circle cx="1" cy="1" r="1" transform="translate(52 42)"/><circle cx="1" cy="1" r="1" transform="translate(50 38)"/><circle cx="1" cy="1" r="1" transform="translate(45 27)"/><circle cx="1" cy="1" r="1" transform="translate(56 46)"/><circle cx="1" cy="1" r="1" transform="translate(54 54)"/><circle cx="1" cy="1" r="1" transform="translate(52 50)"/><circle cx="1" cy="1" r="1" transform="translate(48 55)"/><circle cx="1" cy="1" r="1" transform="translate(56 61)"/><circle cx="1" cy="1" r="1" transform="translate(50 60)"/><circle cx="1" cy="1" r="1" transform="translate(48 46)"/><circle cx="1" cy="1" r="1" transform="translate(46 35)"/><circle cx="1" cy="1" r="1" transform="translate(46 41)"/></g></svg>