<svg xmlns="http://www.w3.org/2000/svg" xmlns:xlink="http://www.w3.org/1999/xlink" width="32" height="32" viewBox="0 0 32 32"><defs><clipPath id="b"><rect width="32" height="32"/></clipPath></defs><g id="a" clip-path="url(#b)"><rect width="32" height="32" fill="#fff"/><rect width="32" height="32" fill="#f6f0ec"/><rect width="4" height="4" fill="#707070"/><circle cx="1" cy="1" r="1" transform="translate(1 6)" fill="#707070"/><path d="M.75,0A.75.75,0,1,1,0,.75.75.75,0,0,1,.75,0Z" transform="translate(-0.75 9.25)" fill="#707070"/><path d="M.75,0A.75.75,0,1,1,0,.75.75.75,0,0,1,.75,0Z" transform="translate(4.25 9.25)" fill="#707070"/><path d="M1,0A1,1,0,1,1,0,1,1,1,0,0,1,1,0Z" transform="translate(5 5)" fill="#707070"/><path d="M.75,0A.75.75,0,1,1,0,.75.75.75,0,0,1,.75,0Z" transform="translate(9.25 -0.75)" fill="#707070"/><path d="M1,0A1,1,0,1,1,0,1,1,1,0,0,1,1,0Z" transform="translate(6 1)" fill="#707070"/><path d="M.75,0A.75.75,0,1,1,0,.75.75.75,0,0,1,.75,0Z" transform="translate(9.25 4.25)" fill="#707070"/><path d="M.75,0A.75.75,0,1,1,0,.75.75.75,0,0,1,.75,0Z" transform="translate(8.25 8.25)" fill="#707070"/></g></svg>