<svg xmlns="http://www.w3.org/2000/svg" xmlns:xlink="http://www.w3.org/1999/xlink" width="32" height="32" viewBox="0 0 32 32"><defs><clipPath id="b"><rect width="32" height="32"/></clipPath></defs><g id="a" clip-path="url(#b)"><rect width="32" height="32" fill="#fff"/><rect width="32" height="32" fill="#f6f0ec"/><rect width="4" height="4" transform="translate(28 28)" fill="#707070"/><circle cx="1" cy="1" r="1" transform="translate(24 29)" fill="#707070"/><path d="M.75,0A.75.75,0,1,1,0,.75.75.75,0,0,1,.75,0Z" transform="translate(27.25 21.25)" fill="#707070"/><path d="M.75,0A.75.75,0,1,1,0,.75.75.75,0,0,1,.75,0Z" transform="translate(21.25 27.25)" fill="#707070"/><path d="M1,0A1,1,0,1,1,0,1,1,1,0,0,1,1,0Z" transform="translate(25 25)" fill="#707070"/><path d="M.75,0A.75.75,0,1,1,0,.75.75.75,0,0,1,.75,0Z" transform="translate(22.25 22.25)" fill="#707070"/><path d="M1,0A1,1,0,1,1,0,1,1,1,0,0,1,1,0Z" transform="translate(29 24)" fill="#707070"/><path d="M.75,0A.75.75,0,1,1,0,.75.75.75,0,0,1,.75,0Z" transform="translate(31.25 21.25)" fill="#707070"/><path d="M.75,0A.75.75,0,1,1,0,.75.75.75,0,0,1,.75,0Z" transform="translate(21.25 31.25)" fill="#707070"/></g></svg>