<svg xmlns="http://www.w3.org/2000/svg" xmlns:xlink="http://www.w3.org/1999/xlink" width="32" height="32" viewBox="0 0 32 32"><defs><clipPath id="b"><rect width="32" height="32"/></clipPath></defs><g id="a" clip-path="url(#b)"><rect width="32" height="32" fill="#fff"/><rect width="32" height="32" fill="#707070"/><rect width="24" height="28" transform="translate(4 4)" fill="#f6f0ec"/><circle cx="1" cy="1" r="1" transform="translate(9 6)" fill="#707070"/><circle cx="1" cy="1" r="1" transform="translate(13 6)" fill="#707070"/><path d="M.75,0A.75.75,0,1,1,0,.75.75.75,0,0,1,.75,0Z" transform="translate(15.25 9.25)" fill="#707070"/><circle cx="1" cy="1" r="1" transform="translate(17 6)" fill="#707070"/><circle cx="1" cy="1" r="1" transform="translate(21 6)" fill="#707070"/><circle cx="1" cy="1" r="1" transform="translate(24 9)" fill="#707070"/><circle cx="1" cy="1" r="1" transform="translate(24 13)" fill="#707070"/><circle cx="1" cy="1" r="1" transform="translate(6 9)" fill="#707070"/><circle cx="1" cy="1" r="1" transform="translate(6 13)" fill="#707070"/><path d="M.75,1.5A.75.75,0,1,0,0,.75.75.75,0,0,0,.75,1.5Z" transform="translate(20.25 10.25)" fill="#707070"/><path d="M.75,0A.75.75,0,1,1,0,.75.75.75,0,0,1,.75,0Z" transform="translate(10.25 10.25)" fill="#707070"/><path d="M.75,1.5A.75.75,0,1,0,0,.75.75.75,0,0,0,.75,1.5Z" transform="translate(24.25 6.25)" fill="#707070"/><path d="M.75,1.5A.75.75,0,1,0,0,.75.75.75,0,0,0,.75,1.5Z" transform="translate(6.25 6.25)" fill="#707070"/><path d="M1,0A1,1,0,1,1,0,1,1,1,0,0,1,1,0Z" transform="translate(6 29)" fill="#707070"/><path d="M.75,0A.75.75,0,1,1,0,.75.75.75,0,0,1,.75,0Z" transform="translate(9.25 23.25)" fill="#707070"/><path d="M1,0A1,1,0,1,1,0,1,1,1,0,0,1,1,0Z" transform="translate(6 25)" fill="#707070"/><path d="M.75,0A.75.75,0,1,1,0,.75.75.75,0,0,1,.75,0Z" transform="translate(9.25 27.25)" fill="#707070"/><path d="M.75,0A.75.75,0,1,1,0,.75.75.75,0,0,1,.75,0Z" transform="translate(9.25 31.25)" fill="#707070"/><path d="M1,0A1,1,0,1,1,0,1,1,1,0,0,1,1,0Z" transform="translate(6 21)" fill="#707070"/><path d="M.75,0A.75.75,0,1,1,0,.75.75.75,0,0,1,.75,0Z" transform="translate(9.25 15.25)" fill="#707070"/><path d="M1,0A1,1,0,1,1,0,1,1,1,0,0,1,1,0Z" transform="translate(6 17)" fill="#707070"/><path d="M.75,0A.75.75,0,1,1,0,.75.75.75,0,0,1,.75,0Z" transform="translate(9.25 19.25)" fill="#707070"/><path d="M1,0A1,1,0,1,1,0,1,1,1,0,0,1,1,0Z" transform="translate(24 29)" fill="#707070"/><path d="M.75,0A.75.75,0,1,1,0,.75.75.75,0,0,1,.75,0Z" transform="translate(21.25 23.25)" fill="#707070"/><path d="M1,0A1,1,0,1,1,0,1,1,1,0,0,1,1,0Z" transform="translate(24 25)" fill="#707070"/><path d="M.75,0A.75.75,0,1,1,0,.75.75.75,0,0,1,.75,0Z" transform="translate(21.25 27.25)" fill="#707070"/><path d="M.75,0A.75.75,0,1,1,0,.75.75.75,0,0,1,.75,0Z" transform="translate(21.25 31.25)" fill="#707070"/><path d="M1,0A1,1,0,1,1,0,1,1,1,0,0,1,1,0Z" transform="translate(24 21)" fill="#707070"/><path d="M.75,0A.75.75,0,1,1,0,.75.75.75,0,0,1,.75,0Z" transform="translate(21.25 15.25)" fill="#707070"/><path d="M1,0A1,1,0,1,1,0,1,1,1,0,0,1,1,0Z" transform="translate(24 17)" fill="#707070"/><path d="M.75,0A.75.75,0,1,1,0,.75.75.75,0,0,1,.75,0Z" transform="translate(21.25 19.25)" fill="#707070"/></g></svg>