<svg xmlns="http://www.w3.org/2000/svg" xmlns:xlink="http://www.w3.org/1999/xlink" width="32" height="32" viewBox="0 0 32 32"><defs><clipPath id="b"><rect width="32" height="32"/></clipPath></defs><g id="a" clip-path="url(#b)"><rect width="32" height="32" fill="#fff"/><rect width="32" height="32" fill="#f6f0ec"/><rect width="32" height="4" fill="#707070"/><circle cx="1" cy="1" r="1" transform="translate(1 6)" fill="#707070"/><circle cx="1" cy="1" r="1" transform="translate(5 6)" fill="#707070"/><path d="M.75,0A.75.75,0,1,1,0,.75.75.75,0,0,1,.75,0Z" transform="translate(3.25 9.25)" fill="#707070"/><path d="M.75,0A.75.75,0,1,1,0,.75.75.75,0,0,1,.75,0Z" transform="translate(7.25 9.25)" fill="#707070"/><circle cx="1" cy="1" r="1" transform="translate(9 6)" fill="#707070"/><circle cx="1" cy="1" r="1" transform="translate(13 6)" fill="#707070"/><path d="M.75,0A.75.75,0,1,1,0,.75.75.75,0,0,1,.75,0Z" transform="translate(11.25 9.25)" fill="#707070"/><path d="M.75,0A.75.75,0,1,1,0,.75.75.75,0,0,1,.75,0Z" transform="translate(15.25 9.25)" fill="#707070"/><circle cx="1" cy="1" r="1" transform="translate(17 6)" fill="#707070"/><circle cx="1" cy="1" r="1" transform="translate(21 6)" fill="#707070"/><path d="M.75,0A.75.75,0,1,1,0,.75.75.75,0,0,1,.75,0Z" transform="translate(19.25 9.25)" fill="#707070"/><path d="M.75,0A.75.75,0,1,1,0,.75.75.75,0,0,1,.75,0Z" transform="translate(23.25 9.25)" fill="#707070"/><circle cx="1" cy="1" r="1" transform="translate(25 6)" fill="#707070"/><circle cx="1" cy="1" r="1" transform="translate(29 6)" fill="#707070"/><path d="M.75,0A.75.75,0,1,1,0,.75.75.75,0,0,1,.75,0Z" transform="translate(27.25 9.25)" fill="#707070"/><path d="M.75,0A.75.75,0,1,1,0,.75.75.75,0,0,1,.75,0Z" transform="translate(31.25 9.25)" fill="#707070"/><circle cx="0.75" cy="0.75" r="0.75" transform="translate(-0.75 9.25)" fill="#707070"/></g></svg>