<svg xmlns="http://www.w3.org/2000/svg" xmlns:xlink="http://www.w3.org/1999/xlink" width="64" height="64" viewBox="0 0 64 64"><defs><clipPath id="b"><rect width="64" height="64"/></clipPath></defs><g id="a" clip-path="url(#b)"><path d="M215.493,714.622a77.77,77.77,0,0,1,11.433.378,42.821,42.821,0,0,0,10.109,0c5.859-.648,6.332-.884,14.827,0A108.893,108.893,0,0,0,270,715v-1a66.777,66.777,0,0,1-16.74.375c-9.419-.946-8.811-.924-16.81-.27s-4.867.473-9.983,0A52.8,52.8,0,0,0,214,714c-6.355.5-8,0-8,0v1S210.125,714.938,215.493,714.622Z" transform="translate(-206 -706)"/><path d="M260.507,714.406a77.77,77.77,0,0,1-11.433-.378,42.821,42.821,0,0,0-10.109,0c-5.859.648-6.332.884-14.827,0A110.572,110.572,0,0,0,206,714v1a67.7,67.7,0,0,1,16.74-.346c9.419.946,8.811.924,16.81.27s4.867-.473,9.983,0a52.8,52.8,0,0,0,12.467.1c6.355-.5,8-.029,8-.029v-1S265.875,714.091,260.507,714.406Z" transform="translate(-206 -698)"/><path d="M222,706s.724,6.583,0,8.048c-.008.146,1.088.117,1,0A44.926,44.926,0,0,1,223,706C222.992,705.977,222,706,222,706Z" transform="translate(-206 -706)"/><path d="M222,705.99a39.221,39.221,0,0,1,0,8.738c.015-.013.862,0,.9,0-.4-1.3.4-6.292,0-8.738C222.894,705.966,222,705.99,222,705.99Z" transform="translate(-174 -705.99)"/><path d="M215.493,714.622a77.77,77.77,0,0,1,11.433.378,42.821,42.821,0,0,0,10.109,0c5.859-.648,6.332-.884,14.827,0A108.893,108.893,0,0,0,270,715v-1a66.777,66.777,0,0,1-16.74.375c-9.419-.946-8.811-.924-16.81-.27s-4.867.473-9.983,0A52.8,52.8,0,0,0,214,714c-6.355.5-8,0-8,0v1S210.125,714.938,215.493,714.622Z" transform="translate(-206 -690)"/><path d="M260.507,714.406a77.77,77.77,0,0,1-11.433-.378,42.821,42.821,0,0,0-10.109,0c-5.859.648-6.332.884-14.827,0A110.572,110.572,0,0,0,206,714v1a67.7,67.7,0,0,1,16.74-.346c9.419.946,8.811.924,16.81.27s4.867-.473,9.983,0a52.8,52.8,0,0,0,12.467.1c6.355-.5,8-.029,8-.029v-1S265.875,714.091,260.507,714.406Z" transform="translate(-206 -682)"/><path d="M215.493,714.622a77.77,77.77,0,0,1,11.433.378,42.821,42.821,0,0,0,10.109,0c5.859-.648,6.332-.884,14.827,0A108.893,108.893,0,0,0,270,715v-1a66.777,66.777,0,0,1-16.74.375c-9.419-.946-8.811-.924-16.81-.27s-4.867.473-9.983,0A52.8,52.8,0,0,0,214,714c-6.355.5-8,0-8,0v1S210.125,714.938,215.493,714.622Z" transform="translate(-206 -674)"/><path d="M260.507,714.406a77.77,77.77,0,0,1-11.433-.378,42.821,42.821,0,0,0-10.109,0c-5.859.648-6.332.884-14.827,0A110.572,110.572,0,0,0,206,714v1a67.7,67.7,0,0,1,16.74-.346c9.419.946,8.811.924,16.81.27s4.867-.473,9.983,0a52.8,52.8,0,0,0,12.467.1c6.355-.5,8-.029,8-.029v-1S265.875,714.091,260.507,714.406Z" transform="translate(-206 -666)"/><path d="M215.493,714.622a77.77,77.77,0,0,1,11.433.378,42.821,42.821,0,0,0,10.109,0c5.859-.648,6.332-.884,14.827,0A108.893,108.893,0,0,0,270,715v-1a66.777,66.777,0,0,1-16.74.375c-9.419-.946-8.811-.924-16.81-.27s-4.867.473-9.983,0A52.8,52.8,0,0,0,214,714c-6.355.5-8,0-8,0v1S210.125,714.938,215.493,714.622Z" transform="translate(-206 -658)"/><path d="M221.96,706.564s.764,6.019.04,7.484c-.008.146,1.088.117,1,0a41.2,41.2,0,0,1-.082-7.616C222.91,706.409,221.96,706.564,221.96,706.564Z" transform="translate(-213.96 -698.195)"/><path d="M221.96,706.341a32.091,32.091,0,0,1,0,8.028c.015-.013.872.119.912.119-.4-1.3.4-5.7,0-8.146C222.864,706.318,221.96,706.341,221.96,706.341Z" transform="translate(-181.96 -698.185)"/><path d="M221.96,706.206s.764,6.378.04,7.842c-.008.146,1.088.117,1,0a43.131,43.131,0,0,1-.04-7.842C222.953,706.182,221.96,706.206,221.96,706.206Z" transform="translate(-206 -690)"/><path d="M222,707a29.264,29.264,0,0,1,0,7.728c.015-.013.862,0,.9,0-.4-1.3.5-5.281.1-7.728C222.992,706.977,222,707,222,707Z" transform="translate(-174 -689.99)"/><path d="M221.96,706.564s.764,6.019.04,7.484c-.008.146,1.088.117,1,0a41.2,41.2,0,0,1-.082-7.616C222.91,706.409,221.96,706.564,221.96,706.564Z" transform="translate(-213.96 -682.195)"/><path d="M221.96,706.341a32.091,32.091,0,0,1,0,8.028c.015-.013.872.119.912.119-.4-1.3.4-5.7,0-8.146C222.864,706.318,221.96,706.341,221.96,706.341Z" transform="translate(-181.96 -682.185)"/><path d="M221.96,706.206s.764,6.378.04,7.842c-.008.146,1.088.117,1,0a43.131,43.131,0,0,1-.04-7.842C222.953,706.182,221.96,706.206,221.96,706.206Z" transform="translate(-206 -674)"/><path d="M222,707a29.264,29.264,0,0,1,0,7.728c.015-.013.862,0,.9,0-.4-1.3.5-5.281.1-7.728C222.992,706.977,222,707,222,707Z" transform="translate(-174 -673.99)"/><path d="M221.96,706.564s.764,6.019.04,7.484c-.008.146,1.088.117,1,0a41.2,41.2,0,0,1-.082-7.616C222.91,706.409,221.96,706.564,221.96,706.564Z" transform="translate(-213.96 -666.195)"/><path d="M221.96,706.341a32.091,32.091,0,0,1,0,8.028c.015-.013.872.119.912.119-.4-1.3.4-5.7,0-8.146C222.864,706.318,221.96,706.341,221.96,706.341Z" transform="translate(-181.96 -666.185)"/><path d="M221.96,706.206s.764,6.378.04,7.842c-.008.146,1.088.117,1,0a43.131,43.131,0,0,1-.04-7.842C222.953,706.182,221.96,706.206,221.96,706.206Z" transform="translate(-206 -658)"/><path d="M222,707a29.264,29.264,0,0,1,0,7.728c.015-.013.862,0,.9,0-.4-1.3.5-5.281.1-7.728C222.992,706.977,222,707,222,707Z" transform="translate(-174 -657.99)"/><path d="M221.96,706.564s.724,6.166,0,7.631a6.923,6.923,0,0,0,1.039,0,42.8,42.8,0,0,1-.082-7.763C222.91,706.409,221.96,706.564,221.96,706.564Z" transform="translate(-213.96 -650.195)"/><path d="M221.96,706.341a30.345,30.345,0,0,1,0,7.844c.015-.013.773,0,.813,0-.4-1.3.5-5.4.1-7.844C222.864,706.318,221.96,706.341,221.96,706.341Z" transform="translate(-181.96 -650.185)"/></g></svg>