<svg xmlns="http://www.w3.org/2000/svg" xmlns:xlink="http://www.w3.org/1999/xlink" width="64" height="64" viewBox="0 0 64 64"><defs><clipPath id="b"><rect width="64" height="64"/></clipPath></defs><g id="a" clip-path="url(#b)"><path d="M-595.625-318.375a4.475,4.475,0,0,1-1.868-.235,3.288,3.288,0,0,1,.04-1,8.3,8.3,0,0,0-.04-3,7.619,7.619,0,0,1,0-4,6.062,6.062,0,0,0-.022-1.953,5.011,5.011,0,0,1,.022-2.047,8.352,8.352,0,0,0,.117-3.859.246.246,0,0,0-.117-.141,5.943,5.943,0,0,0-1.9-.27,8.442,8.442,0,0,0-2.1.27,5.329,5.329,0,0,1-1.339.176,6.54,6.54,0,0,1-1.2-.126l-.112-.02a4.728,4.728,0,0,0-.841-.106,1.617,1.617,0,0,0-.51.077,3.043,3.043,0,0,1-.955.128c-.325,0-.68-.029-1.056-.06l-.114-.009c-.43-.035-.892-.069-1.4-.069-.161,0-.322,0-.477.011-.537.024-1.077.081-1.6.136-.563.059-1.095.116-1.513.116-.5,0-.779-.08-.889-.252a4.721,4.721,0,0,1,0-1.924,5.535,5.535,0,0,0,0-2.075,9.539,9.539,0,0,1,0-4,8.087,8.087,0,0,0,0-4,6.182,6.182,0,0,1-.362-3.586.693.693,0,0,1,.362-.413,1.748,1.748,0,0,1,.693-.13,6.749,6.749,0,0,1,.71.055l.223.024a13.086,13.086,0,0,0,1.442.08c.3,0,.611-.01.932-.03.584-.036,1.05-.072,1.426-.1.564-.043.936-.071,1.271-.071a5.233,5.233,0,0,1,1.3.172,11.236,11.236,0,0,0,2.394.271,3.668,3.668,0,0,0,1.606-.271.95.95,0,0,1,.473-.091,8.7,8.7,0,0,1,1.393.188l.01,0a8.77,8.77,0,0,0,1.432.19c.393,0,.62-.095.691-.289a7.31,7.31,0,0,0,0-4,5.744,5.744,0,0,1-.057-2.471,6.252,6.252,0,0,0,.057-1.529,13.369,13.369,0,0,1,0-4,5.008,5.008,0,0,0-.1-1.622c-.15-1.012-.32-2.158.1-2.378a.993.993,0,0,1,.458-.086,7.045,7.045,0,0,1,1.059.128l.107.018a8.293,8.293,0,0,0,1.344.146,2.239,2.239,0,0,0,1.031-.207,4.181,4.181,0,0,1,1.884-.39,5.631,5.631,0,0,1,2.117.39,5.207,5.207,0,0,0,1.867.255,7.087,7.087,0,0,0,2.133-.255,9.03,9.03,0,0,1,2.445-.274c.506,0,1.381.036,1.555.274a6.206,6.206,0,0,1,0,4,4.631,4.631,0,0,0-.05,2.334,4.272,4.272,0,0,1,.05,1.667,8.581,8.581,0,0,0,0,4,5.514,5.514,0,0,1-.02,2.057,3.919,3.919,0,0,0,.02,1.944,4.476,4.476,0,0,0,2.456.495,4.858,4.858,0,0,0,1.544-.193,6.648,6.648,0,0,1,2.065-.264,5.393,5.393,0,0,1,1.935.264,1.859,1.859,0,0,0,.8.146,12.1,12.1,0,0,0,2.242-.343l.016,0,.488-.1a15.18,15.18,0,0,1,2.829-.293,3.131,3.131,0,0,1,1.625.293c.341.291.173.81-.059,1.528a9.653,9.653,0,0,0-.369,1.388,6.376,6.376,0,0,0,.428,3.853c.486.852-.091,3.028-.4,4.2l-.027.1a8.241,8.241,0,0,0,.265,2.774c.193,1,.375,1.939.163,2.155a.728.728,0,0,1-.526.138,8.406,8.406,0,0,1-.988-.093l-.148-.019a11.35,11.35,0,0,0-1.408-.112,4.548,4.548,0,0,0-.931.086,9.292,9.292,0,0,1-1.93.215,11.849,11.849,0,0,1-2.069-.215,11.244,11.244,0,0,0-1.933-.168,13.808,13.808,0,0,0-2.068.168,11.71,11.71,0,0,1-1.666.095c-1.158,0-2.286-.091-2.334-.095a6.356,6.356,0,0,0,0,3.035,9.551,9.551,0,0,1,0,4.965,13.513,13.513,0,0,0,0,5.647c.4,1.072.4,1.863,0,2.353-.088.108-.264.159-.552.159a8.645,8.645,0,0,1-1.087-.112l-.123-.017a10.456,10.456,0,0,0-1.408-.129,2.994,2.994,0,0,0-.829.1,6.191,6.191,0,0,1-1.691.2,16.336,16.336,0,0,1-2.3-.2h-.008a16.941,16.941,0,0,0-2.341-.2,5.815,5.815,0,0,0-1.659.2A8.275,8.275,0,0,1-595.625-318.375Zm-2.771-17.506a5.89,5.89,0,0,1,1.9.27.172.172,0,0,1,.079.1,17.974,17.974,0,0,1-.079,5.9,5.018,5.018,0,0,0-.022,2.045,6.069,6.069,0,0,1,.022,1.954,7.619,7.619,0,0,0,0,4,2.368,2.368,0,0,1,.035,1.615c-.05.176-.086.3-.035.385a4.485,4.485,0,0,0,1.868.235,8.3,8.3,0,0,0,2.132-.235,5.815,5.815,0,0,1,1.661-.2,16.722,16.722,0,0,1,2.339.2h.008a16.336,16.336,0,0,0,2.3.2,6.192,6.192,0,0,0,1.691-.2,2.339,2.339,0,0,1,.644-.1,1.789,1.789,0,0,1,.662.129l.105.041a.9.9,0,0,0,.312.088.351.351,0,0,0,.277-.159,5.419,5.419,0,0,0,.018-2.257,14.6,14.6,0,0,1-.018-3.743,9.552,9.552,0,0,0,0-4.965c-.446-1.223,0-5,0-5.035.011,0,2.061.095,3.815.095a17.044,17.044,0,0,0,2.184-.095,13.8,13.8,0,0,1,2.068-.168,11.243,11.243,0,0,1,1.933.168,11.852,11.852,0,0,0,2.069.215,9.292,9.292,0,0,0,1.93-.215,3.71,3.71,0,0,1,.747-.087,1.788,1.788,0,0,1,.661.112c.043.016.081.032.116.047a.623.623,0,0,0,.226.066.356.356,0,0,0,.25-.138c.2-.205.053-.6-.134-1.1a3.128,3.128,0,0,1-.293-1.832l.027-.1c.31-1.17.887-3.346.4-4.2a6.384,6.384,0,0,1-.428-3.853,9.614,9.614,0,0,1,.369-1.388c.232-.718.4-1.237.059-1.528a1.059,1.059,0,0,0-.756-.293,7.141,7.141,0,0,0-1.273.2l-.424.088-.5.1a12.1,12.1,0,0,1-2.242.343,1.859,1.859,0,0,1-.8-.146,5.391,5.391,0,0,0-1.935-.264,6.654,6.654,0,0,0-2.065.264,7.96,7.96,0,0,1-2.152.193c-1.692,0-3.594-.185-3.847-.495a3.918,3.918,0,0,1-.02-1.943,5.514,5.514,0,0,0,.02-2.057,8.571,8.571,0,0,1,0-4,4.272,4.272,0,0,0-.05-1.666,4.631,4.631,0,0,1,.05-2.334,6.206,6.206,0,0,0,0-4,.9.9,0,0,0-.756-.273,3.367,3.367,0,0,0-1.244.273,7.089,7.089,0,0,1-2.134.255,5.194,5.194,0,0,1-1.866-.255,5.628,5.628,0,0,0-2.116-.389,4.184,4.184,0,0,0-1.884.389,2.243,2.243,0,0,1-1.032.207,8.271,8.271,0,0,1-1.344-.146l-.108-.018a7.061,7.061,0,0,0-1.059-.128.993.993,0,0,0-.458.085c-.422.22-.252,1.366-.1,2.376a5.011,5.011,0,0,1,.1,1.624,13.364,13.364,0,0,0,0,4,6.255,6.255,0,0,1-.057,1.529,5.744,5.744,0,0,0,.057,2.471,7.31,7.31,0,0,1,0,4c-.072.194-.3.289-.691.289a8.769,8.769,0,0,1-1.432-.19l-.026,0a8.5,8.5,0,0,0-1.378-.185.948.948,0,0,0-.472.091,3.669,3.669,0,0,1-1.606.271,11.234,11.234,0,0,1-2.394-.271,5.254,5.254,0,0,0-1.3-.171c-.335,0-.708.028-1.272.071-.375.029-.841.064-1.423.1-.324.02-.64.03-.939.03a13.068,13.068,0,0,1-1.437-.08l-.218-.024a6.72,6.72,0,0,0-.714-.056,1.745,1.745,0,0,0-.692.13.693.693,0,0,0-.362.413,6.182,6.182,0,0,0,.362,3.586,8.092,8.092,0,0,1,0,4,7.938,7.938,0,0,0,0,3.617,2.122,2.122,0,0,1,0,1.262,1.709,1.709,0,0,0,0,1.12c.11.172.392.252.889.252.418,0,.949-.056,1.512-.116.523-.055,1.063-.112,1.6-.136.156-.007.316-.011.478-.011.506,0,.968.034,1.4.069l.113.009c.376.031.731.06,1.057.06a3.042,3.042,0,0,0,.955-.128,1.618,1.618,0,0,1,.51-.077,4.732,4.732,0,0,1,.841.106l.112.02a6.543,6.543,0,0,0,1.2.126,5.33,5.33,0,0,0,1.339-.176A8.449,8.449,0,0,1-598.4-335.881Z" transform="translate(621.493 374.611)"/><path d="M652,391c.4.493,5.024.663,6,.3a7.678,7.678,0,0,1,4,0c.726.344,2,.016,3.547-.3s1.918-.457,2.453,0-.187,1.489-.428,2.916A6.38,6.38,0,0,0,668,397.77c.5.877-.118,3.131-.428,4.3s.856,2.493.428,2.93-.394-.334-2,0a9.482,9.482,0,0,1-4,0,12.008,12.008,0,0,0-4,0,54.544,54.544,0,0,1-6,0s-.451,3.8,0,5.034A9.621,9.621,0,0,1,652,415c-.409,1.915.409,5.5,0,6s-.671-.382-2,0a10.378,10.378,0,0,1-4,0,10.4,10.4,0,0,0-4,0,8.366,8.366,0,0,1-4,0c-.148-.237.424-.826,0-2a7.69,7.69,0,0,1,0-4c.282-1.044-.368-3.086,0-4s.406-5.852,0-6a7.312,7.312,0,0,0-4,0c-2.048.526-3-.325-4,0s-2.237-.079-4,0-3.666.525-4,0,.334-1.721,0-2.383A7.89,7.89,0,0,1,622,399a8.072,8.072,0,0,0,0-4c-.446-1-.873-3.643,0-4s1.491.156,4,0,2.763-.292,4,0,3.275.424,4,0,3.7.826,4,0a7.355,7.355,0,0,0,0-4c-.435-1.031.166-3.123,0-4a13.314,13.314,0,0,1,0-4c.236-.723-.706-3.632,0-4s2.8.614,4,0a5.368,5.368,0,0,1,4,0,8.037,8.037,0,0,0,4,0c.58-.256,1.663-.459,2,0a6.193,6.193,0,0,1,0,4c-.513,1.535.289,2.775,0,4a8.577,8.577,0,0,0,0,4C652.337,387.781,651.6,390.507,652,391Z" transform="translate(-613 -366)" fill="#eaf7ff"/></g></svg>