<svg xmlns="http://www.w3.org/2000/svg" xmlns:xlink="http://www.w3.org/1999/xlink" width="64" height="64" viewBox="0 0 64 64"><defs><clipPath id="b"><rect width="64" height="64"/></clipPath></defs><g id="a" clip-path="url(#b)"><path d="M255.2,367c-.027-.015,0,64,0,64h24a7.352,7.352,0,0,0,0-3.066c-.317-2.113-.578-1.938-.466-3.87a37.93,37.93,0,0,1,.466-4.473c.369-2.716-.527-3.109-.2-4.5a7.718,7.718,0,0,0,.065-4.666c-.636-1.584.41-1.848,0-3.867s.6-2.091-.065-4.2,1.191-1.667.2-3.523.294-2-.138-3.289.538-1.89.138-3.2c-.191-.628-.251-2.626-1.155-3.679.784-1.675-.709-2.766-.511-3.411.379-1.235-2-2.157-2.334-3.137s-2.939-1.13-3.537-2.649-2.378-1.328-2.923-2.968-1.929-1.228-2.633-2.767-2.454-1.275-2.907-2.74-3.55-2.694-4-4C259.232,366.981,255.2,367,255.2,367Z" transform="translate(-255.198 -366.996)" fill="#888786"/></g></svg>