<svg xmlns="http://www.w3.org/2000/svg" xmlns:xlink="http://www.w3.org/1999/xlink" width="64" height="64" viewBox="0 0 64 64"><defs><clipPath id="b"><rect width="64" height="64"/></clipPath></defs><g id="a" clip-path="url(#b)"><path d="M278.751,367c1.082,1.226.826,2.229.447,2.733s.655,2.4,0,3.817.69,3.057,0,4.19.706,3.49,0,4.418-.36,3.822,0,4.207-1.053,2.418-2.22,1.814a2.965,2.965,0,0,1-1.78-2.056c-.334-.981-2.939-1.13-3.537-2.649s-2.378-1.328-2.923-2.968-1.929-1.228-2.633-2.767-2.454-1.275-2.907-2.74-4-4-4-4a6.067,6.067,0,0,0-4-4" transform="translate(-255.198 -366.996)" fill="#888786"/></g></svg>