<svg xmlns="http://www.w3.org/2000/svg" xmlns:xlink="http://www.w3.org/1999/xlink" width="64" height="64" viewBox="0 0 64 64"><defs><clipPath id="b"><rect width="64" height="64"/></clipPath></defs><g id="a" clip-path="url(#b)"><rect width="64" height="64" fill="#fff"/><path d="M-142-371h-64v-64h64v64Zm-14-14v12h12v-12Zm-48,0v12h44v-12h-44Zm48-48h0v44h12v-44Zm-48,0h0v44h44v-44h-44Z" transform="translate(206 435)" fill="#707070"/><text transform="translate(8 12)" fill="#707070" font-size="10" font-family="Consolas"><tspan x="-2.749" y="0">9</tspan></text><text transform="translate(24 12)" fill="#707070" font-size="10" font-family="Consolas"><tspan x="-2.749" y="0">1</tspan></text><text transform="translate(40 12)" fill="#707070" font-size="10" font-family="Consolas"><tspan x="-2.749" y="0">3</tspan></text><text transform="translate(40 28)" fill="#707070" font-size="10" font-family="Consolas"><tspan x="-2.749" y="0">2</tspan></text><text transform="translate(24 28)" fill="#707070" font-size="10" font-family="Consolas"><tspan x="-2.749" y="0">0</tspan></text><text transform="translate(8 28)" fill="#707070" font-size="10" font-family="Consolas"><tspan x="-2.749" y="0">8</tspan></text><text transform="translate(40 44)" fill="#707070" font-size="10" font-family="Consolas"><tspan x="-2.749" y="0">6</tspan></text><text transform="translate(24 44)" fill="#707070" font-size="10" font-family="Consolas"><tspan x="-2.749" y="0">4</tspan></text><text transform="translate(8 44)" fill="#707070" font-size="10" font-family="Consolas"><tspan x="-5.498" y="0">12</tspan></text><text transform="translate(40 60)" fill="#707070" font-size="10" font-family="Consolas"><tspan x="-2.749" y="0">7</tspan></text><text transform="translate(24 60)" fill="#707070" font-size="10" font-family="Consolas"><tspan x="-2.749" y="0">5</tspan></text><text transform="translate(8 60)" fill="#707070" font-size="10" font-family="Consolas"><tspan x="-5.498" y="0">13</tspan></text><text transform="translate(56 60)" fill="#707070" font-size="10" font-family="Consolas"><tspan x="-5.498" y="0">15</tspan></text><text transform="translate(56 12)" fill="#707070" font-size="10" font-family="Consolas"><tspan x="-5.498" y="0">11</tspan></text><text transform="translate(56 28)" fill="#707070" font-size="10" font-family="Consolas"><tspan x="-5.498" y="0">10</tspan></text><text transform="translate(56 44)" fill="#707070" font-size="10" font-family="Consolas"><tspan x="-5.498" y="0">14</tspan></text></g></svg>