<svg xmlns="http://www.w3.org/2000/svg" xmlns:xlink="http://www.w3.org/1999/xlink" width="64" height="64" viewBox="0 0 64 64"><defs><clipPath id="b"><rect width="64" height="64"/></clipPath></defs><g id="a" clip-path="url(#b)"><rect width="64" height="64" fill="#fff"/><path d="M-174-539h-4v-2h2v-2h2v4Zm-6,0h-3v-2h3v2Zm-5,0h-4v-2h4v2Zm-6,0h-4v-2h4v2Zm-6,0h-3v-2h3v2Zm-5,0h-4v-4h2v2h2v2Zm28-6h-2v-3h2v3Zm-30,0h-2v-3h2v3Zm30-5h-2v-4h2v4Zm-30,0h-2v-4h2v4Zm30-6h-2v-4h2v4Zm-30,0h-2v-4h2v4Zm30-6h-2v-3h2v3Zm-30,0h-2v-3h2v3Zm30-5h-2v-2h-2v-2h4v4Zm-30,0h-2v-4h4v2h-2v2Zm24-2h-3v-2h3v2Zm-5,0h-4v-2h4v2Zm-6,0h-4v-2h4v2Zm-6,0h-3v-2h3v2Z" transform="translate(222 587)" fill="#707070"/><text transform="translate(32 12)" fill="#707070" font-size="12" font-family="Consolas"><tspan x="-3.299" y="0">0</tspan></text><text transform="translate(56 36)" fill="#707070" font-size="12" font-family="Consolas"><tspan x="-3.299" y="0">0</tspan></text><text transform="translate(32 60)" fill="#707070" font-size="12" font-family="Consolas"><tspan x="-3.299" y="0">0</tspan></text><text transform="translate(8 36)" fill="#707070" font-size="12" font-family="Consolas"><tspan x="-3.299" y="0">0</tspan></text></g></svg>