<svg xmlns="http://www.w3.org/2000/svg" xmlns:xlink="http://www.w3.org/1999/xlink" width="64" height="64" viewBox="0 0 64 64"><defs><clipPath id="b"><rect width="64" height="64"/></clipPath></defs><g id="a" clip-path="url(#b)"><path d="M-344-303h-64v-64h64v64Zm-28.536-1.009a36.385,36.385,0,0,1,4.659.2,48.457,48.457,0,0,0,5.963.257c2.723,0,5.22-.1,6.681-.257,2.927-.322,9.538-.331,10.282-.331h.074c.009-.065.9-6.938.3-10.227a47.089,47.089,0,0,1-.2-7.673c.055-2.827.112-5.749-.093-8.352a77.731,77.731,0,0,1,0-12.748,28.712,28.712,0,0,0-.016-3.819,86.374,86.374,0,0,1,.016-9.345c.4-7.467,0-9.813-.007-9.836l-.008,0a39.426,39.426,0,0,1-6.171.411,60.983,60.983,0,0,1-6.979-.413,53.075,53.075,0,0,0-6.091-.307c-2.448,0-4.88.112-7.162.227l-.612.031c-1.99.1-3.866.2-5.4.2a17.758,17.758,0,0,1-2.581-.147,19.754,19.754,0,0,0-2.882-.165c-1.661,0-3.6.1-5.32.193l-.139.007c-1.814.1-3.528.186-4.96.186a11.52,11.52,0,0,1-2.7-.221,17.824,17.824,0,0,0-4.059-.322c-3.2,0-6.9.318-6.941.322a52.52,52.52,0,0,0-.328,11,44.634,44.634,0,0,1,.051,7.289,35.708,35.708,0,0,0-.051,4.712c.273,3.757.328,7.377.328,12,0,1.412-.056,3.38-.115,5.462v.016c-.135,4.775-.3,10.716.115,13.242a34.417,34.417,0,0,1,0,8.279c.041,0,5.3.415,9.184.415,1.026,0,1.884-.028,2.551-.084.854-.072,2.043-.106,3.633-.106s3.352.034,5.184.072l.238,0c1.653.034,3.214.067,4.454.067.762,0,1.337-.012,1.757-.038C-378.263-303.909-375.224-304.008-372.536-304.008Z" transform="translate(408 367)"/></g></svg>