<svg xmlns="http://www.w3.org/2000/svg" xmlns:xlink="http://www.w3.org/1999/xlink" width="64" height="64" viewBox="0 0 64 64"><defs><clipPath id="b"><rect width="64" height="64"/></clipPath></defs><g id="a" clip-path="url(#b)"><path d="M520.729,503s1.466,4.856,0,6.64S517.82,513.668,518,515s.041,3.94-.888,4.52S512.7,523,512.7,523s2.5-3.041,3.427-4,.812-1.268.638-4,1.537-3.631,2.611-6.126-.348-5.874-.348-5.874Z" transform="translate(-478 -503)"/><path d="M511.911,523s-4.619-.749-7.185-4-4.061-3.586-4.061-3.586a11.59,11.59,0,0,1,2.588-7.319,14.315,14.315,0,0,0-4.15,6.9,9.337,9.337,0,0,0-4.507,1.151,6,6,0,0,0-2.7,3.949c.067-.022,3.2-3.414,6.1-3.5s3.156.669,5.521,3.146S511.911,523,511.911,523Z" transform="translate(-478 -503)"/></g></svg>