<svg xmlns="http://www.w3.org/2000/svg" xmlns:xlink="http://www.w3.org/1999/xlink" width="64" height="64" viewBox="0 0 64 64"><defs><clipPath id="b"><rect width="64" height="64"/></clipPath></defs><g id="a" clip-path="url(#b)"><path d="M478,408.882V411s3.683-1.586,5.439-1.586.268,1.276,1.585,1.586,2.12-.248,3.877,0,1.249.992,3.151.992,2.639-.992,4.775-.992,2.582-.1,3.592.546-.318.966.447,1.83.479.574,2.119,1.138,3.219-.423,4.53.487.321,1.213,1.473,2.213A13.2,13.2,0,0,0,512.123,419a13.912,13.912,0,0,1-2.711-2.274c-1.017-1.2.061-1.853-1.356-2.54s-2.8.1-4.312-.208-1.092-.18-1.744-1,.24-1.835-1.134-2.53a7.3,7.3,0,0,0-4.362-.875c-2.339.039-3.094.982-4.995,1.03s-1.133-.541-2.609-.837-2.058.135-3.3-.347.249-1.446-1.653-1.579S478,408.882,478,408.882Z" transform="translate(-478 -367)"/></g></svg>